<svg width="259" height="119" viewBox="0 0 259 119" fill="none" xmlns="http://www.w3.org/2000/svg">
<path d="M23.6847 37.4594L45.6597 59.3676C46.0915 59.7981 46.0454 60.5074 45.5746 60.8949C37.5031 67.5385 22.9787 87.1739 22.9787 118.756C22.9787 87.1739 8.45429 67.5385 0.382824 60.8949C-0.087963 60.5074 -0.134113 59.7981 0.297703 59.3676L22.2727 37.4594C22.6629 37.0703 23.2945 37.0703 23.6847 37.4594Z" fill="white"/>
<path d="M5.65423 21.4941L17.7671 35.9087C18.3705 36.6267 19.5413 36.1939 19.5327 35.2562L19.3504 15.4075C19.3483 15.1753 19.2654 14.9511 19.116 14.7733L7.00312 0.358738C6.39978 -0.359243 5.22896 0.0734724 5.23757 1.01126L5.41985 20.8599C5.42199 21.0921 5.50485 21.3163 5.65423 21.4941Z" fill="white"/>
<path d="M21.4707 23.4149L21.2549 43.1462C21.2446 44.084 22.4147 44.5188 23.0193 43.8019L36.4259 27.9044C36.5756 27.7269 36.6589 27.5029 36.6614 27.2707L36.8772 7.53934C36.8875 6.60157 35.7174 6.1668 35.1129 6.88372L21.7062 22.7811C21.5565 22.9586 21.4733 23.1827 21.4707 23.4149Z" fill="white"/>
<path d="M83.0627 82.2273V50.4833H91.7027V82.2273H83.0627ZM87.4147 46.4513C85.836 46.4513 84.5347 46.0033 83.5107 45.1073C82.5294 44.1686 82.0387 42.9953 82.0387 41.5873C82.0387 40.1793 82.5294 39.0059 83.5107 38.0673C84.5347 37.1286 85.836 36.6593 87.4147 36.6593C88.9934 36.6593 90.2734 37.1286 91.2547 38.0673C92.236 39.0059 92.7267 40.1793 92.7267 41.5873C92.7267 42.9526 92.236 44.1046 91.2547 45.0433C90.2734 45.9819 88.9934 46.4513 87.4147 46.4513Z" fill="white"/>
<path d="M113.595 82.9953C110.225 82.9953 107.281 82.2913 104.763 80.8833C102.289 79.4326 100.347 77.47 98.9392 74.9953C97.5739 72.478 96.8912 69.598 96.8912 66.3553C96.8912 63.1126 97.5952 60.2539 99.0032 57.7793C100.411 55.2619 102.374 53.2993 104.891 51.8913C107.409 50.4406 110.31 49.7153 113.595 49.7153C117.691 49.7153 121.126 50.7819 123.899 52.9153C126.715 55.0486 128.507 57.9926 129.275 61.7473H120.123C119.782 60.2113 118.993 59.0166 117.755 58.1633C116.561 57.3099 115.153 56.8833 113.531 56.8833C112.038 56.8833 110.694 57.2673 109.499 58.0353C108.347 58.7606 107.43 59.8273 106.747 61.2353C106.065 62.6433 105.723 64.35 105.723 66.3553C105.723 67.806 105.915 69.1073 106.299 70.2593C106.683 71.4113 107.217 72.3926 107.899 73.2033C108.582 74.014 109.393 74.6326 110.331 75.0593C111.313 75.4433 112.379 75.6353 113.531 75.6353C114.641 75.6353 115.643 75.4646 116.539 75.1233C117.435 74.7393 118.203 74.206 118.843 73.5233C119.483 72.798 119.91 71.9446 120.123 70.9633H129.275C128.507 74.6326 126.715 77.5553 123.899 79.7313C121.126 81.9073 117.691 82.9953 113.595 82.9953Z" fill="white"/>
<path d="M133.734 82.2273V37.4273H142.246V55.7953H142.502C143.611 53.8326 145.062 52.3393 146.854 51.3153C148.646 50.2486 150.758 49.7153 153.19 49.7153C155.75 49.7153 157.926 50.2913 159.718 51.4433C161.51 52.5526 162.875 54.1953 163.814 56.3713C164.752 58.5473 165.222 61.2353 165.222 64.4353V82.2273H156.646V65.2033C156.646 62.558 156.112 60.5313 155.046 59.1233C154.022 57.7153 152.358 57.0113 150.054 57.0113C148.56 57.0113 147.238 57.3739 146.086 58.0993C144.934 58.7819 144.016 59.7846 143.334 61.1073C142.694 62.3873 142.374 63.966 142.374 65.8433V82.2273H133.734Z" fill="white"/>
<path d="M185.399 82.9953C182.327 82.9953 179.553 82.2913 177.079 80.8833C174.604 79.4753 172.641 77.5126 171.191 74.9953C169.783 72.478 169.079 69.598 169.079 66.3553C169.079 63.07 169.804 60.1899 171.255 57.7153C172.705 55.1979 174.668 53.2353 177.143 51.8273C179.617 50.4193 182.369 49.7153 185.399 49.7153C188.471 49.7153 191.244 50.4193 193.719 51.8273C196.193 53.2353 198.135 55.1979 199.543 57.7153C200.993 60.1899 201.719 63.07 201.719 66.3553C201.719 69.6406 200.993 72.5419 199.543 75.0593C198.092 77.5339 196.129 79.4753 193.655 80.8833C191.223 82.2913 188.471 82.9953 185.399 82.9953ZM185.335 75.6993C186.743 75.6993 188.001 75.358 189.111 74.6753C190.263 73.9926 191.18 72.9686 191.863 71.6033C192.545 70.1953 192.887 68.446 192.887 66.3553C192.887 64.2646 192.545 62.5366 191.863 61.1713C191.18 59.7633 190.263 58.7179 189.111 58.0353C188.001 57.3526 186.785 57.0113 185.463 57.0113C184.097 57.0113 182.839 57.3526 181.687 58.0353C180.535 58.7179 179.617 59.7633 178.935 61.1713C178.252 62.5366 177.911 64.2646 177.911 66.3553C177.911 68.446 178.252 70.1953 178.935 71.6033C179.617 72.9686 180.513 73.9926 181.623 74.6753C182.775 75.358 184.012 75.6993 185.335 75.6993Z" fill="white"/>
<path d="M205.851 82.2273V50.4833H213.211L213.979 57.4593H214.235C215.174 55.1979 216.198 53.5339 217.307 52.4673C218.417 51.3579 219.675 50.6326 221.083 50.2913C222.534 49.9073 224.155 49.7153 225.947 49.7153V58.8673H223.579C222.129 58.8673 220.827 59.0379 219.675 59.3793C218.566 59.6779 217.627 60.1899 216.859 60.9153C216.091 61.5979 215.494 62.5153 215.067 63.6673C214.683 64.8193 214.491 66.206 214.491 67.8273V82.2273H205.851Z" fill="white"/>
<path d="M239.219 82.9953C236.702 82.9953 234.611 82.5686 232.947 81.7153C231.326 80.862 230.131 79.71 229.363 78.2593C228.595 76.8086 228.211 75.2086 228.211 73.4593C228.211 71.4966 228.702 69.7686 229.683 68.2753C230.707 66.7819 232.243 65.6299 234.291 64.8193C236.339 63.9659 238.921 63.5393 242.035 63.5393H250.035C250.035 61.9606 249.801 60.6593 249.331 59.6353C248.905 58.6113 248.222 57.8433 247.283 57.3313C246.387 56.8193 245.235 56.5633 243.827 56.5633C242.163 56.5633 240.734 56.9473 239.539 57.7153C238.387 58.4406 237.662 59.5926 237.363 61.1713H228.979C229.235 58.8246 230.003 56.7979 231.283 55.0913C232.606 53.3846 234.334 52.0619 236.467 51.1233C238.643 50.1846 241.097 49.7153 243.827 49.7153C246.899 49.7153 249.545 50.2273 251.763 51.2513C253.982 52.2326 255.689 53.7046 256.883 55.6673C258.078 57.5873 258.675 59.9339 258.675 62.7073V82.2273H251.507L250.611 77.2993H250.355C249.673 78.238 248.926 79.0699 248.115 79.7953C247.347 80.5206 246.494 81.1179 245.555 81.5873C244.617 82.0566 243.614 82.3979 242.547 82.6113C241.481 82.8673 240.371 82.9953 239.219 82.9953ZM242.035 76.3393C243.23 76.3393 244.254 76.1473 245.107 75.7633C246.003 75.3366 246.771 74.7819 247.411 74.0993C248.051 73.4166 248.542 72.6273 248.883 71.7313C249.267 70.7926 249.523 69.8326 249.651 68.8513H242.995C241.673 68.8513 240.585 69.0219 239.731 69.3633C238.921 69.6619 238.323 70.1099 237.939 70.7073C237.555 71.2619 237.363 71.9233 237.363 72.6913C237.363 73.4593 237.555 74.1206 237.939 74.6753C238.323 75.23 238.878 75.6566 239.603 75.9553C240.329 76.2113 241.139 76.3393 242.035 76.3393Z" fill="white"/>
</svg>
