<svg width="153" height="65" viewBox="0 0 153 65" fill="none" xmlns="http://www.w3.org/2000/svg">
<path d="M14.3094 17.5508L27.6247 30.3448C27.8873 30.597 27.86 31.0222 27.5747 31.2487C22.6874 35.1297 13.9031 46.5832 13.9031 65C13.9031 46.5832 5.11872 35.1297 0.231446 31.2487C-0.0537829 31.0222 -0.0811169 30.597 0.181433 30.3448L13.4968 17.5508C13.7236 17.3329 14.0826 17.3329 14.3094 17.5508Z" fill="url(#paint0_linear_1_19)"/>
<path d="M22.5259 13.598L15.8272 20.8519C15.466 21.2429 14.8111 20.9883 14.8111 20.4568V10.7409C14.8111 10.5945 14.8663 10.4535 14.9658 10.3458L21.6644 3.09194C22.0256 2.70087 22.6805 2.95553 22.6805 3.48703L22.6805 13.2029C22.6805 13.3493 22.6253 13.4903 22.5259 13.598Z" fill="#00EA10"/>
<path d="M5.88309 9.94032L11.9764 16.6261C12.3363 17.0209 12.9951 16.7672 12.9951 16.2338V7.27036C12.9951 7.12531 12.9409 6.98546 12.843 6.87809L6.74968 0.192316C6.38985 -0.202493 5.73102 0.0512106 5.73102 0.584583L5.73102 9.54805C5.73102 9.6931 5.78523 9.83295 5.88309 9.94032Z" fill="#008209"/>
<path d="M50.2027 47.4977V28.9779H55.2603V47.4977H50.2027ZM52.7502 26.6256C51.8261 26.6256 51.0644 26.3643 50.465 25.8415C49.8905 25.2939 49.6033 24.6094 49.6033 23.7879C49.6033 22.9665 49.8905 22.2819 50.465 21.7343C51.0644 21.1867 51.8261 20.9129 52.7502 20.9129C53.6743 20.9129 54.4236 21.1867 54.998 21.7343C55.5725 22.2819 55.8597 22.9665 55.8597 23.7879C55.8597 24.5845 55.5725 25.2566 54.998 25.8042C54.4236 26.3518 53.6743 26.6256 52.7502 26.6256Z" fill="#46143A"/>
<path d="M68.0753 47.9458C66.1023 47.9458 64.379 47.535 62.9054 46.7136C61.4568 45.8673 60.3204 44.7222 59.4962 43.2785C58.697 41.8099 58.2974 40.1296 58.2974 38.2378C58.2974 36.346 58.7095 34.6782 59.5337 33.2345C60.3579 31.7659 61.5068 30.6208 62.9803 29.7994C64.4539 28.953 66.1522 28.5299 68.0753 28.5299C70.473 28.5299 72.4835 29.1522 74.1069 30.3968C75.7553 31.6414 76.8043 33.359 77.2539 35.5495H71.8966C71.6968 34.6534 71.2348 33.9564 70.5105 33.4585C69.8111 32.9607 68.987 32.7118 68.0379 32.7118C67.1637 32.7118 66.377 32.9358 65.6777 33.3839C65.0033 33.807 64.4664 34.4293 64.0668 35.2508C63.6672 36.0722 63.4674 37.0679 63.4674 38.2378C63.4674 39.0842 63.5797 39.8434 63.8045 40.5155C64.0293 41.1875 64.3415 41.7601 64.7411 42.233C65.1407 42.706 65.6153 43.0669 66.1647 43.3158C66.7392 43.5399 67.3635 43.6519 68.0379 43.6519C68.6873 43.6519 69.2742 43.5523 69.7987 43.3532C70.3231 43.1291 70.7727 42.818 71.1473 42.4197C71.522 41.9965 71.7717 41.4987 71.8966 40.9262H77.2539C76.8043 43.0669 75.7553 44.772 74.1069 46.0415C72.4835 47.311 70.473 47.9458 68.0753 47.9458Z" fill="#46143A"/>
<path d="M79.8637 47.4977V21.3609H84.8463V32.077H84.9962C85.6455 30.932 86.4947 30.0608 87.5437 29.4633C88.5927 28.841 89.829 28.5299 91.2526 28.5299C92.7511 28.5299 94.0248 28.8659 95.0738 29.538C96.1228 30.1852 96.922 31.1436 97.4715 32.4131C98.0209 33.6826 98.2957 35.2508 98.2957 37.1177V47.4977H93.2756V37.5657C93.2756 36.0224 92.9634 34.84 92.339 34.0186C91.7396 33.1972 90.7655 32.7864 89.4168 32.7864C88.5427 32.7864 87.7685 32.998 87.0941 33.4212C86.4198 33.8195 85.8828 34.4044 85.4832 35.1761C85.1086 35.9229 84.9212 36.8439 84.9212 37.9391V47.4977H79.8637Z" fill="#46143A"/>
<path d="M110.107 47.9458C108.308 47.9458 106.685 47.535 105.236 46.7136C103.788 45.8922 102.639 44.7471 101.79 43.2785C100.965 41.8099 100.553 40.1296 100.553 38.2378C100.553 36.3211 100.978 34.6409 101.827 33.1972C102.676 31.7285 103.825 30.5835 105.274 29.762C106.722 28.9406 108.333 28.5299 110.107 28.5299C111.905 28.5299 113.528 28.9406 114.977 29.762C116.425 30.5835 117.562 31.7285 118.386 33.1972C119.235 34.6409 119.66 36.3211 119.66 38.2378C119.66 40.1545 119.235 41.8472 118.386 43.3158C117.537 44.7596 116.388 45.8922 114.939 46.7136C113.516 47.535 111.905 47.9458 110.107 47.9458ZM110.069 43.6892C110.893 43.6892 111.63 43.4901 112.279 43.0918C112.954 42.6935 113.491 42.0961 113.89 41.2996C114.29 40.4781 114.49 39.4575 114.49 38.2378C114.49 37.0181 114.29 36.01 113.89 35.2134C113.491 34.392 112.954 33.7821 112.279 33.3839C111.63 32.9856 110.918 32.7864 110.144 32.7864C109.345 32.7864 108.608 32.9856 107.934 33.3839C107.259 33.7821 106.722 34.392 106.323 35.2134C105.923 36.01 105.723 37.0181 105.723 38.2378C105.723 39.4575 105.923 40.4781 106.323 41.2996C106.722 42.0961 107.247 42.6935 107.896 43.0918C108.571 43.4901 109.295 43.6892 110.069 43.6892Z" fill="#46143A"/>
<path d="M122.079 47.4977V28.9779H126.387L126.837 33.0478H126.986C127.536 31.7285 128.135 30.7577 128.785 30.1354C129.434 29.4882 130.171 29.0651 130.995 28.8659C131.844 28.6419 132.793 28.5299 133.842 28.5299V33.8692H132.456C131.607 33.8692 130.845 33.9688 130.171 34.168C129.521 34.3422 128.972 34.6409 128.522 35.0641C128.073 35.4623 127.723 35.9975 127.473 36.6696C127.249 37.3417 127.136 38.1507 127.136 39.0966V47.4977H122.079Z" fill="#46143A"/>
<path d="M141.611 47.9458C140.138 47.9458 138.914 47.6968 137.94 47.199C136.991 46.7012 136.291 46.0291 135.842 45.1827C135.392 44.3364 135.167 43.4029 135.167 42.3824C135.167 41.2373 135.455 40.2292 136.029 39.358C136.629 38.4867 137.528 37.8147 138.726 37.3417C139.925 36.8439 141.436 36.5949 143.26 36.5949H147.942C147.942 35.6739 147.805 34.9147 147.53 34.3173C147.281 33.7199 146.881 33.2718 146.332 32.9731C145.807 32.6744 145.133 32.5251 144.309 32.5251C143.334 32.5251 142.498 32.7491 141.798 33.1972C141.124 33.6203 140.7 34.2924 140.525 35.2134H135.617C135.767 33.8444 136.216 32.662 136.966 31.6663C137.74 30.6706 138.751 29.899 140 29.3513C141.274 28.8037 142.71 28.5299 144.309 28.5299C146.107 28.5299 147.655 28.8286 148.954 29.426C150.253 29.9985 151.252 30.8573 151.951 32.0023C152.65 33.1225 153 34.4916 153 36.1095V47.4977H148.804L148.28 44.6227H148.13C147.73 45.1703 147.293 45.6557 146.819 46.0788C146.369 46.502 145.869 46.8505 145.32 47.1243C144.771 47.3981 144.184 47.5973 143.559 47.7217C142.935 47.8711 142.285 47.9458 141.611 47.9458ZM143.26 44.0626C143.959 44.0626 144.558 43.9506 145.058 43.7265C145.582 43.4776 146.032 43.154 146.406 42.7557C146.781 42.3575 147.068 41.897 147.268 41.3742C147.493 40.8266 147.643 40.2665 147.718 39.694H143.821C143.047 39.694 142.41 39.7936 141.911 39.9927C141.436 40.167 141.087 40.4283 140.862 40.7768C140.637 41.1004 140.525 41.4863 140.525 41.9343C140.525 42.3824 140.637 42.7682 140.862 43.0918C141.087 43.4154 141.411 43.6643 141.836 43.8386C142.261 43.9879 142.735 44.0626 143.26 44.0626Z" fill="#46143A"/>
<defs>
<linearGradient id="paint0_linear_1_19" x1="13.9029" y1="18.0356" x2="13.9029" y2="65.0001" gradientUnits="userSpaceOnUse">
<stop stop-color="white"/>
<stop offset="0.417322" stop-color="#FF00CC"/>
</linearGradient>
</defs>
</svg>
