<svg width="259" height="112" viewBox="0 0 259 112" fill="none" xmlns="http://www.w3.org/2000/svg">
<path d="M10.66 19.1054L23.9943 29.3717C24.7374 29.9438 25.7884 29.2704 25.5791 28.3562L21.6174 11.0469C21.5656 10.8206 21.4366 10.6193 21.2526 10.4777L7.91831 0.211363C7.17521 -0.360756 6.12423 0.312658 6.33346 1.22684L10.2952 18.5361C10.347 18.7625 10.476 18.9637 10.66 19.1054Z" fill="white"/>
<path d="M23.6847 30.2168L45.6597 52.125C46.0915 52.5555 46.0454 53.2648 45.5746 53.6523C37.5031 60.2959 22.9787 79.9313 22.9787 111.513C22.9787 79.9313 8.45429 60.2959 0.382824 53.6523C-0.087963 53.2648 -0.134113 52.5555 0.297703 52.125L22.2727 30.2168C22.6629 29.8277 23.2945 29.8277 23.6847 30.2168Z" fill="white"/>
<path d="M22.7366 19.7343L20.8628 37.2851C20.7632 38.2177 21.8865 38.7619 22.5567 38.1059L35.8601 25.0823C36.0261 24.9199 36.1303 24.7048 36.1549 24.4739L38.0288 6.92311C38.1284 5.99059 37.0051 5.44631 36.3349 6.10236L23.0314 19.1259C22.8655 19.2883 22.7613 19.5035 22.7366 19.7343Z" fill="white"/>
<path d="M83.0627 81.5129V49.7689H91.7027V81.5129H83.0627ZM87.4147 45.7369C85.836 45.7369 84.5347 45.2889 83.5107 44.3929C82.5294 43.4543 82.0387 42.2809 82.0387 40.8729C82.0387 39.4649 82.5294 38.2916 83.5107 37.3529C84.5347 36.4143 85.836 35.9449 87.4147 35.9449C88.9934 35.9449 90.2734 36.4143 91.2547 37.3529C92.236 38.2916 92.7267 39.4649 92.7267 40.8729C92.7267 42.2383 92.236 43.3903 91.2547 44.3289C90.2734 45.2676 88.9934 45.7369 87.4147 45.7369Z" fill="white"/>
<path d="M113.595 82.2809C110.225 82.2809 107.281 81.5769 104.763 80.1689C102.289 78.7183 100.347 76.7556 98.9392 74.2809C97.5739 71.7636 96.8912 68.8836 96.8912 65.6409C96.8912 62.3983 97.5952 59.5396 99.0032 57.0649C100.411 54.5476 102.374 52.5849 104.891 51.1769C107.409 49.7263 110.31 49.0009 113.595 49.0009C117.691 49.0009 121.126 50.0676 123.899 52.2009C126.715 54.3343 128.507 57.2783 129.275 61.0329H120.123C119.782 59.4969 118.993 58.3023 117.755 57.4489C116.561 56.5956 115.153 56.1689 113.531 56.1689C112.038 56.1689 110.694 56.5529 109.499 57.3209C108.347 58.0463 107.43 59.1129 106.747 60.5209C106.065 61.9289 105.723 63.6356 105.723 65.6409C105.723 67.0916 105.915 68.3929 106.299 69.5449C106.683 70.6969 107.217 71.6783 107.899 72.4889C108.582 73.2996 109.393 73.9183 110.331 74.3449C111.313 74.7289 112.379 74.9209 113.531 74.9209C114.641 74.9209 115.643 74.7503 116.539 74.4089C117.435 74.0249 118.203 73.4916 118.843 72.8089C119.483 72.0836 119.91 71.2303 120.123 70.2489H129.275C128.507 73.9183 126.715 76.8409 123.899 79.0169C121.126 81.1929 117.691 82.2809 113.595 82.2809Z" fill="white"/>
<path d="M133.734 81.5129V36.7129H142.246V55.0809H142.502C143.611 53.1183 145.062 51.6249 146.854 50.6009C148.646 49.5343 150.758 49.0009 153.19 49.0009C155.75 49.0009 157.926 49.5769 159.718 50.7289C161.51 51.8383 162.875 53.4809 163.814 55.6569C164.752 57.8329 165.222 60.5209 165.222 63.7209V81.5129H156.646V64.4889C156.646 61.8436 156.112 59.8169 155.046 58.4089C154.022 57.0009 152.358 56.2969 150.054 56.2969C148.56 56.2969 147.238 56.6596 146.086 57.3849C144.934 58.0676 144.016 59.0703 143.334 60.3929C142.694 61.6729 142.374 63.2516 142.374 65.1289V81.5129H133.734Z" fill="white"/>
<path d="M185.399 82.2809C182.327 82.2809 179.553 81.5769 177.079 80.1689C174.604 78.7609 172.641 76.7983 171.191 74.2809C169.783 71.7636 169.079 68.8836 169.079 65.6409C169.079 62.3556 169.804 59.4756 171.255 57.0009C172.705 54.4836 174.668 52.5209 177.143 51.1129C179.617 49.7049 182.369 49.0009 185.399 49.0009C188.471 49.0009 191.244 49.7049 193.719 51.1129C196.193 52.5209 198.135 54.4836 199.543 57.0009C200.993 59.4756 201.719 62.3556 201.719 65.6409C201.719 68.9263 200.993 71.8276 199.543 74.3449C198.092 76.8196 196.129 78.7609 193.655 80.1689C191.223 81.5769 188.471 82.2809 185.399 82.2809ZM185.335 74.9849C186.743 74.9849 188.001 74.6436 189.111 73.9609C190.263 73.2783 191.18 72.2543 191.863 70.8889C192.545 69.4809 192.887 67.7316 192.887 65.6409C192.887 63.5503 192.545 61.8223 191.863 60.4569C191.18 59.0489 190.263 58.0036 189.111 57.3209C188.001 56.6383 186.785 56.2969 185.463 56.2969C184.097 56.2969 182.839 56.6383 181.687 57.3209C180.535 58.0036 179.617 59.0489 178.935 60.4569C178.252 61.8223 177.911 63.5503 177.911 65.6409C177.911 67.7316 178.252 69.4809 178.935 70.8889C179.617 72.2543 180.513 73.2783 181.623 73.9609C182.775 74.6436 184.012 74.9849 185.335 74.9849Z" fill="white"/>
<path d="M205.851 81.5129V49.7689H213.211L213.979 56.7449H214.235C215.174 54.4836 216.198 52.8196 217.307 51.7529C218.417 50.6436 219.675 49.9183 221.083 49.5769C222.534 49.1929 224.155 49.0009 225.947 49.0009V58.1529H223.579C222.129 58.1529 220.827 58.3236 219.675 58.6649C218.566 58.9636 217.627 59.4756 216.859 60.2009C216.091 60.8836 215.494 61.8009 215.067 62.9529C214.683 64.1049 214.491 65.4916 214.491 67.1129V81.5129H205.851Z" fill="white"/>
<path d="M239.219 82.2809C236.702 82.2809 234.611 81.8543 232.947 81.0009C231.326 80.1476 230.131 78.9956 229.363 77.5449C228.595 76.0943 228.211 74.4943 228.211 72.7449C228.211 70.7823 228.702 69.0543 229.683 67.5609C230.707 66.0676 232.243 64.9156 234.291 64.1049C236.339 63.2516 238.921 62.8249 242.035 62.8249H250.035C250.035 61.2463 249.801 59.9449 249.331 58.9209C248.905 57.8969 248.222 57.1289 247.283 56.6169C246.387 56.1049 245.235 55.8489 243.827 55.8489C242.163 55.8489 240.734 56.2329 239.539 57.0009C238.387 57.7263 237.662 58.8783 237.363 60.4569H228.979C229.235 58.1103 230.003 56.0836 231.283 54.3769C232.606 52.6703 234.334 51.3476 236.467 50.4089C238.643 49.4703 241.097 49.0009 243.827 49.0009C246.899 49.0009 249.545 49.5129 251.763 50.5369C253.982 51.5183 255.689 52.9903 256.883 54.9529C258.078 56.8729 258.675 59.2196 258.675 61.9929V81.5129H251.507L250.611 76.5849H250.355C249.673 77.5236 248.926 78.3556 248.115 79.0809C247.347 79.8063 246.494 80.4036 245.555 80.8729C244.617 81.3423 243.614 81.6836 242.547 81.8969C241.481 82.1529 240.371 82.2809 239.219 82.2809ZM242.035 75.6249C243.23 75.6249 244.254 75.4329 245.107 75.0489C246.003 74.6223 246.771 74.0676 247.411 73.3849C248.051 72.7023 248.542 71.9129 248.883 71.0169C249.267 70.0783 249.523 69.1183 249.651 68.1369H242.995C241.673 68.1369 240.585 68.3076 239.731 68.6489C238.921 68.9476 238.323 69.3956 237.939 69.9929C237.555 70.5476 237.363 71.2089 237.363 71.9769C237.363 72.7449 237.555 73.4063 237.939 73.9609C238.323 74.5156 238.878 74.9423 239.603 75.2409C240.329 75.4969 241.139 75.6249 242.035 75.6249Z" fill="white"/>
</svg>
